<?xml version="1.0" encoding="UTF-8" standalone="no"?>
<svg
   xmlns:dc="http://purl.org/dc/elements/1.1/"
   xmlns:cc="http://creativecommons.org/ns#"
   xmlns:rdf="http://www.w3.org/1999/02/22-rdf-syntax-ns#"
   xmlns:svg="http://www.w3.org/2000/svg"
   xmlns="http://www.w3.org/2000/svg"
   xmlns:sodipodi="http://sodipodi.sourceforge.net/DTD/sodipodi-0.dtd"
   xmlns:inkscape="http://www.inkscape.org/namespaces/inkscape"
   enable-background="new 0 0 32 32"
   id="Glyph"
   version="1.1"
   viewBox="0 0 31.999998 31.999998"
   xml:space="preserve"
   sodipodi:docname="notsee.svg"
   width="31.999998"
   height="31.999998"
   inkscape:version="1.0.1 (3bc2e813f5, 2020-09-07)"><metadata
     id="metadata1277"><rdf:RDF><cc:Work
         rdf:about=""><dc:format>image/svg+xml</dc:format><dc:type
           rdf:resource="http://purl.org/dc/dcmitype/StillImage" /></cc:Work></rdf:RDF></metadata><defs
     id="defs1275" /><sodipodi:namedview
     pagecolor="#ffffff"
     bordercolor="#666666"
     borderopacity="1"
     objecttolerance="10"
     gridtolerance="10"
     guidetolerance="10"
     inkscape:pageopacity="0"
     inkscape:pageshadow="2"
     inkscape:window-width="1600"
     inkscape:window-height="847"
     id="namedview1273"
     showgrid="false"
     inkscape:zoom="7.5130096"
     inkscape:cx="-13.368905"
     inkscape:cy="22.045332"
     inkscape:window-x="-8"
     inkscape:window-y="-8"
     inkscape:window-maximized="1"
     inkscape:current-layer="Glyph" /><g
     id="g1281"
     transform="matrix(1.1428367,0,0,1.1428367,-2.2853877,-2.2853877)"><path
       d="m 20.722,24.964 c 0.096,0.096 0.057,0.264 -0.073,0.306 -7.7,2.466 -16.032,-1.503 -18.594,-8.942 -0.072,-0.21 -0.072,-0.444 0,-0.655 0.743,-2.157 1.99,-4.047 3.588,-5.573 0.061,-0.058 0.158,-0.056 0.217,0.003 l 4.302,4.302 c 0.03,0.03 0.041,0.072 0.031,0.113 -1.116,4.345 2.948,8.395 7.276,7.294 0.049,-0.013 0.095,-0.004 0.131,0.032 0.358,0.357 2.445,2.443 3.122,3.12 z"
       id="XMLID_323_" /><path
       d="m 24.68,23.266 c 2.406,-1.692 4.281,-4.079 5.266,-6.941 0.072,-0.21 0.072,-0.44 0,-0.65 C 27.954,9.888 22.35,6 16,6 13.521,6 11.159,6.597 9.079,7.665 L 3.707,2.293 c -0.391,-0.391 -1.023,-0.391 -1.414,0 -0.391,0.391 -0.391,1.023 0,1.414 l 26,26 c 0.391,0.391 1.023,0.391 1.414,0 0.391,-0.391 0.391,-1.023 0,-1.414 z M 16,10 c 3.309,0 6,2.691 6,6 0,1.294 -0.416,2.49 -1.115,3.471 L 12.529,11.115 C 13.51,10.416 14.706,10 16,10 Z"
       id="XMLID_325_" /></g></svg>
