<?xml version="1.0" encoding="UTF-8" standalone="no"?>
<svg
   xmlns:dc="http://purl.org/dc/elements/1.1/"
   xmlns:cc="http://creativecommons.org/ns#"
   xmlns:rdf="http://www.w3.org/1999/02/22-rdf-syntax-ns#"
   xmlns:svg="http://www.w3.org/2000/svg"
   xmlns="http://www.w3.org/2000/svg"
   xmlns:sodipodi="http://sodipodi.sourceforge.net/DTD/sodipodi-0.dtd"
   xmlns:inkscape="http://www.inkscape.org/namespaces/inkscape"
   enable-background="new 0 0 32 32"
   id="Glyph"
   version="1.1"
   viewBox="0 0 31.999996 22.857143"
   xml:space="preserve"
   sodipodi:docname="see.svg"
   width="31.999996"
   height="22.857143"
   inkscape:version="1.0.1 (3bc2e813f5, 2020-09-07)"><metadata
     id="metadata1259"><rdf:RDF><cc:Work
         rdf:about=""><dc:format>image/svg+xml</dc:format><dc:type
           rdf:resource="http://purl.org/dc/dcmitype/StillImage" /></cc:Work></rdf:RDF></metadata><defs
     id="defs1257" /><sodipodi:namedview
     pagecolor="#ffffff"
     bordercolor="#666666"
     borderopacity="1"
     objecttolerance="10"
     gridtolerance="10"
     guidetolerance="10"
     inkscape:pageopacity="0"
     inkscape:pageshadow="2"
     inkscape:window-width="1600"
     inkscape:window-height="847"
     id="namedview1255"
     showgrid="false"
     inkscape:zoom="21.25"
     inkscape:cx="14"
     inkscape:cy="10"
     inkscape:window-x="-8"
     inkscape:window-y="-8"
     inkscape:window-maximized="1"
     inkscape:current-layer="Glyph" /><path
     d="M 31.938286,11.057143 C 29.661714,4.443429 23.257143,0 16,0 8.7428572,0 2.3382859,4.443429 0.0617145,11.057143 c -0.082286,0.24 -0.082286,0.502857 0,0.742857 C 2.3382859,18.413714 8.7428572,22.857143 16,22.857143 c 7.257143,0 13.661714,-4.443429 15.938286,-11.057143 0.08228,-0.24 0.08228,-0.502857 0,-0.742857 z M 16,18.285714 c -3.781714,0 -6.8571428,-3.075428 -6.8571428,-6.857143 0,-3.781714 3.0754288,-6.857142 6.8571428,-6.857142 3.781714,0 6.857143,3.075428 6.857143,6.857142 0,3.781715 -3.075429,6.857143 -6.857143,6.857143 z"
     id="XMLID_320_"
     style="stroke-width:1.14286" /></svg>
