<?xml version="1.0" encoding="UTF-8" standalone="no"?>
<svg
   xmlns:dc="http://purl.org/dc/elements/1.1/"
   xmlns:cc="http://creativecommons.org/ns#"
   xmlns:rdf="http://www.w3.org/1999/02/22-rdf-syntax-ns#"
   xmlns:svg="http://www.w3.org/2000/svg"
   xmlns="http://www.w3.org/2000/svg"
   xmlns:sodipodi="http://sodipodi.sourceforge.net/DTD/sodipodi-0.dtd"
   xmlns:inkscape="http://www.inkscape.org/namespaces/inkscape"
   width="180"
   height="180"
   viewBox="0 0 47.624999 47.625001"
   version="1.1"
   id="svg8"
   sodipodi:docname="00001_TEMPLATE.svg"
   inkscape:version="1.0.1 (3bc2e813f5, 2020-09-07)">
  <sodipodi:namedview
     pagecolor="#ffffff"
     bordercolor="#666666"
     borderopacity="1"
     objecttolerance="10"
     gridtolerance="10"
     guidetolerance="10"
     inkscape:pageopacity="0"
     inkscape:pageshadow="2"
     inkscape:window-width="1600"
     inkscape:window-height="847"
     id="namedview12"
     showgrid="false"
     inkscape:zoom="2.6712923"
     inkscape:cx="76.513694"
     inkscape:cy="81.776643"
     inkscape:window-x="-8"
     inkscape:window-y="-8"
     inkscape:window-maximized="1"
     inkscape:current-layer="g36" />
  <defs
     id="defs2" />
  <metadata
     id="metadata5">
    <rdf:RDF>
      <cc:Work
         rdf:about="">
        <dc:format>image/svg+xml</dc:format>
        <dc:type
           rdf:resource="http://purl.org/dc/dcmitype/StillImage" />
        <dc:title />
      </cc:Work>
    </rdf:RDF>
  </metadata>
  <g
     id="layer1"
     transform="translate(-60.854179,-71.4375)">
    <g
       id="g36">
      <rect
         style="fill:#e6e6e6;stroke-width:0.0613234"
         id="rect29"
         width="47.625"
         height="47.625"
         x="60.854179"
         y="71.4375" />
      <g
         id="g27"
         transform="matrix(0.05167643,0,0,0.05167643,71.437513,84.225661)">
        <path
           d="m 128,96 c 0,17.67188 -14.32812,32 -32,32 -17.671875,0 -32,-14.32812 -32,-32 0,-17.671875 14.328125,-32 32,-32 17.67188,0 32,14.328125 32,32 z m 0,0"
           id="path10" />
        <path
           d="m 458.66797,138.66797 v 129.1289 C 458.66797,314.23828 420.88672,352 374.46484,352 H 160 v 21.33203 c 0,29.39844 23.9375,53.33594 53.33203,53.33594 H 458.66797 C 488.0625,426.66797 512,402.73047 512,373.33203 V 192 c 0,-29.39844 -23.9375,-53.33203 -53.33203,-53.33203 z m 0,0"
           id="path12" />
        <path
           d="M 374.46484,0 H 52.203125 C 23.425781,0 0,23.425781 0,52.203125 V 267.77734 c 0,3.6875 0.40625,7.29297 1.152344,10.77344 -1.2382815,5.22656 -0.105469,10.89844 3.96875,14.99609 0.894531,0.89454 2.027344,1.38672 3.070312,2.02735 C 17.449219,310.20703 33.664062,320 52.203125,320 H 374.44141 c 28.80078,0 52.22656,-23.42578 52.22656,-52.20313 V 52.203125 C 426.66797,23.425781 403.24219,0 374.46484,0 Z M 52.203125,42.667969 H 374.44141 c 5.26953,0 9.55859,4.285156 9.55859,9.535156 V 183.44531 L 316.60937,104.83203 C 309.46094,96.425781 299.58594,92.351562 288,91.710938 c -11.05078,0.06641 -21.41797,4.972656 -28.5,13.460942 l -79.23438,95.12499 -25.8125,-25.78906 c -14.58984,-14.59375 -38.33593,-14.59375 -52.90624,0 L 42.667969,233.36719 V 52.203125 c 0,-5.25 4.285156,-9.535156 9.535156,-9.535156 z m 0,0"
           id="path14" />
      </g>
    </g>
  </g>
</svg>
